Coordinates
version=1
nRows=65
nColumns=12
inDegrees=yes

Units are S.I. units (second, meters, Newtons, ...)
Angles are in degrees

endheader
time	SC_y	SC_z	SC_x	AC_y	AC_z	AC_x	GH_y	GH_z	GH_yy	EL_x	PS_y
       0.0              -24.13          33.28          5.889          55.04         -9.997          -17.8           67.6          9.406         -4.475          89.06          13.78
   0.04118              -24.13          33.28          5.891          55.04         -9.996          -17.8          67.58          9.407          -4.45          89.05          13.78
   0.08236              -24.13          33.28          5.894          55.04         -9.996          -17.8          67.55          9.409         -4.422          89.03          13.79
    0.1235              -24.13          33.28          5.896          55.04         -9.995          -17.8          67.52           9.41         -4.393          89.02           13.8
    0.1647              -24.13          33.27          5.899          55.04         -9.994          -17.8          67.48          9.412         -4.362          89.01          13.81
    0.2059              -24.13          33.27          5.901          55.04         -9.993         -17.79          67.45          9.413         -4.329           89.0          13.82
    0.2471              -24.14          33.27          5.904          55.04         -9.992         -17.79          67.41          9.415         -4.293          88.98          13.83
    0.2883              -24.14          33.26          5.907          55.04         -9.991         -17.79          67.37          9.417         -4.255          88.96          13.84
    0.3294              -24.14          33.26          5.911          55.04          -9.99         -17.79          67.33          9.418         -4.215          88.95          13.85
    0.3706              -24.14          33.26          5.914          55.04         -9.989         -17.79          67.28           9.42         -4.171          88.93          13.87
    0.4118              -24.14          33.25          5.918          55.03         -9.987         -17.79          67.23          9.423         -4.124          88.91          13.88
     0.453              -24.15          33.25          5.922          55.03         -9.986         -17.79          67.18          9.425         -4.074          88.89           13.9
    0.4942              -24.15          33.24          5.927          55.03         -9.984         -17.79          67.12          9.428          -4.02          88.86          13.91
    0.5353              -24.15          33.24          5.931          55.03         -9.983         -17.79          67.06           9.43         -3.961          88.84          13.93
    0.5765              -24.16          33.23          5.937          55.03         -9.981         -17.78          66.99          9.433         -3.898          88.81          13.95
    0.6177              -24.16          33.22          5.942          55.03         -9.979         -17.78          66.92          9.436         -3.829          88.78          13.97
    0.6589              -24.16          33.22          5.949          55.03         -9.977         -17.78          66.84           9.44         -3.754          88.75          13.99
    0.7001              -24.17          33.21          5.955          55.03         -9.975         -17.78          66.75          9.444         -3.673          88.72          14.02
    0.7412              -24.17           33.2          5.963          55.03         -9.972         -17.78          66.66          9.448         -3.584          88.68          14.04
    0.7824              -24.18          33.19          5.971          55.02         -9.969         -17.77          66.56          9.452         -3.487          88.64          14.07
    0.8236              -24.18          33.18          5.979          55.02         -9.966         -17.77          66.44          9.457          -3.38           88.6           14.1
    0.8648              -24.19          33.17          5.989          55.02         -9.963         -17.77          66.32          9.463         -3.262          88.55          14.14
     0.906              -24.19          33.16            6.0          55.02         -9.959         -17.76          66.18          9.469         -3.132          88.49          14.18
    0.9471               -24.2          33.15          6.012          55.02         -9.955         -17.76          66.03          9.476         -2.988          88.43          14.22
    0.9883              -24.21          33.13          6.025          55.01         -9.951         -17.76          65.86          9.483         -2.828          88.36          14.27
      1.03              -24.22          33.11          6.039          55.01         -9.946         -17.75          65.67          9.491          -2.65          88.29          14.32
     1.071              -24.23           33.1          6.056          55.01          -9.94         -17.75          65.46          9.501          -2.45           88.2          14.38
     1.112              -24.24          33.07          6.074           55.0         -9.934         -17.74          65.22          9.511         -2.225          88.11          14.45
     1.153              -24.25          33.05          6.095           55.0         -9.927         -17.74          64.95          9.523          -1.97           88.0          14.53
     1.194              -24.26          33.02          6.119          54.99         -9.919         -17.73          64.64          9.536         -1.682          87.88          14.61
     1.235              -24.28          32.99          6.146          54.99          -9.91         -17.72          64.29          9.552         -1.352          87.74          14.71
     1.277               -24.3          32.96          6.177          54.98         -9.899         -17.71          63.89          9.569        -0.9742          87.58          14.83
     1.318              -24.32          32.92          6.213          54.97         -9.887          -17.7          63.43           9.59        -0.5377           87.4          14.96
     1.359              -24.34          32.87          6.255          54.96         -9.872         -17.69          62.89          9.613       -0.03041          87.18          15.11
       1.4              -24.37          32.81          6.304          54.95         -9.856         -17.67          62.26          9.641         0.5631          86.93          15.29
     1.441              -24.41          32.75          6.362          54.94         -9.836         -17.66          61.52          9.674          1.263          86.64           15.5
     1.482              -24.45          32.67           6.43          54.93         -9.813         -17.64          60.64          9.712          2.094          86.29          15.75
     1.524               -24.5          32.58          6.512          54.91         -9.785         -17.61          59.59          9.759          3.091          85.87          16.05
     1.565              -24.56          32.47          6.611          54.89         -9.751         -17.58          58.31          9.815          4.297          85.36          16.41
     1.606              -24.63          32.33          6.733          54.86          -9.71         -17.55          56.75          9.884           5.77          84.74          16.85
     1.647              -24.72          32.16          6.882          54.83         -9.659          -17.5          54.82          9.968          7.588          83.97           17.4
     1.688              -24.83          31.95          7.069          54.79         -9.595         -17.44          52.42          10.07          9.855          83.01          18.08
      1.73              -24.97          31.68          7.304          54.75         -9.515         -17.37           49.4          10.21          12.71          81.81          18.93
     1.771              -25.15          31.34          7.603          54.68         -9.414         -17.28          45.55          10.38          16.34          80.28          20.02
     1.812              -25.38          30.91          7.986           54.6         -9.283         -17.17          40.63          10.59          20.99          78.32          21.42
     1.853              -25.67          30.35          8.476           54.5         -9.116         -17.02          34.31          10.87          26.95           75.8           23.2
     1.894              -26.04          29.64          9.104          54.37         -8.903         -16.84          26.24          11.22          34.57          72.59          25.49
     1.935              -26.51          28.75          9.892          54.21         -8.634          -16.6          16.09          11.67          44.14          68.55          28.36
     1.977              -27.08          27.66          10.85           54.0         -8.307         -16.31          3.728          12.21          55.82          63.63          31.87
     2.018              -27.75           26.4          11.97          53.77         -7.927         -15.98          -10.6          12.84          69.34          57.92          35.92
     2.059              -28.47          25.03          13.17          53.52         -7.517         -15.62         -26.12          13.53          83.99          51.74          40.32
       2.1              -29.19          23.66          14.38          53.27         -7.106         -15.26         -41.64          14.21          98.64          45.56          44.71
     2.141              -29.85           22.4          15.49          53.04         -6.727         -14.92         -55.98          14.84          112.2          39.85          48.77
     2.183              -30.42          21.31          16.45          52.84           -6.4         -14.63         -68.34          15.38          123.8          34.93          52.28
     2.224              -30.89          20.42          17.24          52.67         -6.131          -14.4         -78.49          15.83          133.4          30.89          55.15
     2.265              -31.27           19.7          17.87          52.54         -5.918         -14.21         -86.56          16.18          141.0          27.68          57.43
     2.306              -31.56          19.15          18.36          52.44          -5.75         -14.06         -92.87          16.46          147.0          25.16          59.22
     2.347              -31.79          18.71          18.74          52.36          -5.62         -13.95          -97.8          16.68          151.6           23.2          60.62
     2.388              -31.96          18.38          19.04           52.3         -5.518         -13.86         -101.6          16.85          155.3          21.67          61.71
      2.43               -32.1          18.11          19.28          52.25         -5.438         -13.79         -104.7          16.98          158.1          20.47          62.56
     2.471              -32.22           17.9          19.46          52.21         -5.375         -13.73         -107.1          17.09          160.4          19.51          63.24
     2.512               -32.3          17.73          19.61          52.18         -5.324         -13.69         -109.0          17.17          162.2          18.74          63.79
     2.553              -32.38          17.59          19.73          52.15         -5.282         -13.65         -110.6          17.24          163.7          18.12          64.23
     2.594              -32.44          17.48          19.83          52.13         -5.249         -13.62         -111.8           17.3          164.9          17.61          64.59
     2.636              -32.48          17.39          19.92          52.11         -5.221          -13.6         -112.9          17.34          165.9          17.19          64.89
